<?xml version="1.0" standalone="no"?>
<!DOCTYPE svg PUBLIC "-//W3C//DTD SVG 20010904//EN"
 "http://www.w3.org/TR/2001/REC-SVG-20010904/DTD/svg10.dtd">
<svg version="1.0" xmlns="http://www.w3.org/2000/svg"
 width="1024.000000pt" height="1024.000000pt" viewBox="0 0 1024.000000 1024.000000"
 preserveAspectRatio="xMidYMid meet">

<g transform="translate(0.000000,1024.000000) scale(0.100000,-0.100000)"
fill="#000000" stroke="none">
<path d="M2990 7163 c-234 -25 -510 -132 -690 -267 -112 -84 -244 -222 -304
-319 -63 -101 -139 -273 -173 -389 -26 -89 -27 -103 -28 -333 0 -176 -4 -251
-14 -280 -8 -22 -63 -122 -122 -223 -136 -229 -147 -251 -159 -314 -13 -68 0
-115 47 -160 53 -50 78 -61 158 -67 86 -7 90 -17 45 -108 -46 -93 -49 -131
-14 -169 16 -16 40 -38 54 -47 24 -17 24 -18 7 -46 -25 -43 -21 -73 18 -130
l35 -51 -20 -60 c-39 -117 -23 -211 50 -281 91 -89 207 -114 481 -104 210 7
234 2 262 -57 14 -30 95 -389 112 -497 10 -59 61 -115 120 -130 60 -15 1274
-15 1329 0 51 14 93 56 101 102 6 29 -2 61 -38 159 -148 405 -214 712 -204
953 8 190 48 293 237 604 198 328 267 518 290 801 26 318 -48 651 -192 863
-202 298 -515 480 -932 542 -95 14 -358 19 -456 8z m512 -172 c321 -69 596
-234 734 -442 120 -181 185 -426 185 -698 0 -298 -61 -476 -296 -871 -156
-263 -208 -389 -236 -580 -29 -199 15 -499 112 -764 24 -67 109 -337 109 -348
0 -2 -269 -4 -598 -6 -484 -3 -600 -1 -613 10 -10 8 -23 49 -33 103 -39 209
-79 383 -98 426 -23 55 -78 111 -133 136 -35 16 -72 18 -300 18 l-260 0 -48
28 c-65 38 -74 61 -51 128 26 79 23 147 -12 215 l-28 56 37 30 c66 53 46 120
-44 147 -22 7 -42 18 -45 26 -3 7 8 45 25 83 70 159 18 247 -159 272 -92 13
-114 24 -106 56 4 13 35 67 70 121 104 161 175 291 204 372 27 75 27 80 24
287 -3 229 6 304 53 429 53 139 143 290 248 416 152 182 414 309 754 364 124
20 377 13 505 -14z"/>
<path d="M3322 6762 c-29 -11 -70 -33 -92 -51 l-39 -31 -37 25 c-41 28 -123
55 -163 55 -79 -2 -211 -84 -266 -166 -33 -50 -35 -51 -93 -56 -123 -12 -232
-99 -303 -243 -40 -80 -43 -91 -47 -189 -6 -142 17 -222 87 -298 89 -98 180
-133 376 -147 175 -13 256 -44 337 -128 50 -51 146 -207 159 -257 33 -125 60
-157 113 -136 69 26 71 99 6 236 -114 244 -271 386 -456 414 -38 5 -113 14
-167 19 -187 18 -295 99 -313 234 -19 140 86 308 203 324 l40 5 7 -45 c8 -53
44 -112 112 -185 58 -62 100 -76 133 -43 37 37 28 74 -33 140 -62 68 -80 116
-70 190 13 99 69 161 152 169 61 5 127 -21 116 -47 -10 -23 -17 -215 -10 -256
14 -74 84 -101 126 -47 20 25 21 34 15 119 -6 79 -4 97 13 136 37 82 152 139
239 117 84 -21 142 -70 172 -146 11 -28 10 -37 -8 -73 -26 -50 -26 -72 -3
-101 16 -20 28 -23 108 -25 104 -2 168 -28 224 -91 75 -86 88 -173 44 -302
-62 -187 -156 -245 -308 -192 -61 22 -66 22 -90 6 -14 -9 -29 -28 -32 -43 -16
-63 55 -115 169 -121 37 -3 67 -9 67 -15 0 -6 -11 -29 -24 -51 -30 -51 -84
-82 -173 -101 -104 -22 -131 -69 -72 -127 29 -29 33 -31 93 -25 97 9 172 42
232 101 56 57 94 139 94 204 0 33 8 46 59 99 65 66 130 187 151 282 17 75 8
201 -21 276 -41 105 -168 207 -326 263 -26 9 -33 17 -33 37 0 80 -119 223
-226 272 -76 35 -170 40 -242 15z"/>
<path d="M3405 6166 c-124 -39 -181 -120 -125 -176 28 -28 65 -25 116 12 82
59 169 37 199 -50 33 -93 32 -92 68 -92 101 0 97 142 -8 246 -72 72 -152 91
-250 60z"/>
<path d="M5247 6173 c-4 -4 -7 -352 -7 -775 l1 -768 154 0 155 0 0 775 0 775
-148 0 c-82 0 -152 -3 -155 -7z"/>
<path d="M6600 6158 c-22 -52 -480 -1504 -480 -1521 0 -4 71 -7 158 -7 l158 0
27 103 c15 56 34 125 42 152 l15 50 263 -2 262 -2 32 -108 c17 -59 36 -127 43
-150 l11 -43 159 0 159 0 -15 53 c-36 121 -189 611 -243 780 -33 100 -98 302
-146 450 l-86 267 -175 0 c-171 0 -175 0 -184 -22z m198 -400 c6 -18 44 -146
86 -284 42 -138 76 -254 76 -258 0 -3 -79 -6 -175 -6 -96 0 -175 3 -175 6 0 9
32 117 80 274 21 69 50 164 65 213 14 48 28 87 30 87 2 0 8 -15 13 -32z"/>
<path d="M7607 6174 c-4 -4 -7 -353 -7 -776 l0 -768 145 0 146 0 -3 490 c-2
270 -1 490 2 490 3 -1 24 -42 46 -93 23 -51 97 -212 165 -359 l123 -268 86 0
86 0 99 213 c54 116 129 280 167 362 l68 150 0 -492 0 -493 140 0 140 0 -2
773 -3 772 -155 0 -154 0 -122 -270 c-68 -148 -153 -341 -191 -427 -37 -87
-70 -158 -73 -158 -3 0 -24 44 -47 98 -23 53 -109 246 -190 427 l-148 330
-156 3 c-85 1 -158 -1 -162 -4z"/>
</g>
</svg>
